<svg xmlns="http://www.w3.org/2000/svg" xmlns:xlink="http://www.w3.org/1999/xlink" viewBox="0 0 1282.54 1282.54"><defs><style>.cls-1{fill:none;stroke-width:50px;stroke:url(#linear-gradient);}.cls-1,.cls-2,.cls-3{stroke-miterlimit:10;}.cls-2{fill:url(#linear-gradient-2);stroke:url(#linear-gradient-3);}.cls-3{fill:url(#linear-gradient-4);stroke:url(#linear-gradient-5);}</style><linearGradient id="linear-gradient" y1="641.27" x2="1282.54" y2="641.27" gradientUnits="userSpaceOnUse"><stop offset="0.2" stop-color="#647dee"/><stop offset="0.35" stop-color="#7771eb"/><stop offset="0.6" stop-color="#9161e6"/><stop offset="0.83" stop-color="#a157e3"/><stop offset="1" stop-color="#a754e2"/></linearGradient><linearGradient id="linear-gradient-2" x1="338.92" y1="921.74" x2="696.07" y2="1247.15" gradientUnits="userSpaceOnUse"><stop offset="0" stop-color="#647dee"/><stop offset="0.24" stop-color="#6e77ec"/><stop offset="0.65" stop-color="#8a66e7"/><stop offset="1" stop-color="#a754e2"/></linearGradient><linearGradient id="linear-gradient-3" x1="391.46" y1="1050.64" x2="764.32" y2="1050.64" gradientUnits="userSpaceOnUse"><stop offset="0.07" stop-color="#647dee"/><stop offset="0.28" stop-color="#697aed"/><stop offset="0.53" stop-color="#7771eb"/><stop offset="0.79" stop-color="#8e63e6"/><stop offset="1" stop-color="#a754e2"/></linearGradient><linearGradient id="linear-gradient-4" x1="941.89" y1="811.11" x2="548.06" y2="1091" gradientUnits="userSpaceOnUse"><stop offset="0.07" stop-color="#647dee"/><stop offset="0.25" stop-color="#7771eb"/><stop offset="0.54" stop-color="#9161e6"/><stop offset="0.8" stop-color="#a157e3"/><stop offset="1" stop-color="#a754e2"/></linearGradient><linearGradient id="linear-gradient-5" x1="525.26" y1="997.86" x2="898.12" y2="997.86" gradientUnits="userSpaceOnUse"><stop offset="0" stop-color="#a754e2"/><stop offset="0.4" stop-color="#a555e2"/><stop offset="0.6" stop-color="#9d5ae4"/><stop offset="0.75" stop-color="#9062e6"/><stop offset="0.88" stop-color="#7d6de9"/><stop offset="0.99" stop-color="#667cee"/><stop offset="1" stop-color="#647dee"/></linearGradient></defs><g id="Layer_1" data-name="Layer 1"><circle class="cls-1" cx="641.27" cy="641.27" r="616.27"/></g><g id="Layer_2" data-name="Layer 2"><path class="cls-2" d="M457.63,609.64c-38.55,63.05-42.93,96.05-43.25,99a3.11,3.11,0,0,0,0,.43v497.72c0,30.77-22.89,30.77-22.89,30.77H571.93a4.11,4.11,0,0,0,4.11-4.12v-93.36a4.11,4.11,0,0,0-4.11-4.11h-54a4.11,4.11,0,0,1-4.11-4.12V1002a4.11,4.11,0,0,1,4.11-4.11H623.26c21.32,0,24.83,39.68,25.07,42.74a2.41,2.41,0,0,1,0,.38l-6.4,337a4.12,4.12,0,0,1-4.12,4h-86.1c-32.91,0-32.91-35.77-32.91-35.77v-43.82a4.12,4.12,0,0,0-4.12-4.11H414.87a4.09,4.09,0,0,0-4.11,4.11c.08,20.64,2.51,113.24,38.65,146.84,38.66,36,78.61,43.61,82.65,44.3a3.91,3.91,0,0,0,.68.06h227a4.11,4.11,0,0,0,2-7.72c-6.54-3.54-11.77-8.56-11.77-15.53V1046.79c.13-2.49,2.3-52.69-33.63-88.62-36.84-36.84-68.68-62.95-119.47-62.95h-63.1c-3.81.3-86.72,6.2-86.72-52.67v-130a5.19,5.19,0,0,0-.05-.68c-.57-3.4-5.11-32.39.67-53.77,3.53-13.07,11.32-31.42,17.32-44.66a4.11,4.11,0,0,0-6.39-4.85h0A4.18,4.18,0,0,0,457.63,609.64Z" transform="translate(-6.73 -376.69)"/><path class="cls-3" d="M832,1438.87c38.55-63,42.93-96,43.26-99,0-.15,0-.28,0-.44V841.72c0-30.76,22.89-30.76,22.89-30.76H717.66a4.12,4.12,0,0,0-4.12,4.12v93.36a4.12,4.12,0,0,0,4.12,4.11h54a4.12,4.12,0,0,1,4.12,4.12v129.84a4.12,4.12,0,0,1-4.12,4.12H666.32c-21.32,0-24.83-39.68-25.07-42.74,0-.13,0-.25,0-.38l6.41-337a4.11,4.11,0,0,1,4.11-4h86.11c32.91,0,32.91,35.78,32.91,35.78V746a4.11,4.11,0,0,0,4.11,4.12h99.82a4.09,4.09,0,0,0,4.11-4.11c-.08-20.64-2.51-113.24-38.65-146.85-38.66-35.94-78.6-43.6-82.65-44.3a3.89,3.89,0,0,0-.68,0h-227a4.1,4.1,0,0,0-2,7.72c6.53,3.54,11.76,8.56,11.76,15.53v423.63c-.13,2.49-2.29,52.69,33.63,88.61,36.84,36.85,68.68,63,119.48,63h63.09c3.81-.3,86.72-6.2,86.72,52.67v130a3.71,3.71,0,0,0,.06.67c.56,3.41,5.1,32.39-.67,53.78-3.54,13.07-11.33,31.41-17.32,44.66a4.11,4.11,0,0,0,6.39,4.85h0A4.37,4.37,0,0,0,832,1438.87Z" transform="translate(-6.73 -376.69)"/></g></svg>